<?xml version="1.0" encoding="UTF-8" standalone="no"?>
<svg
   xmlns:dc="http://purl.org/dc/elements/1.1/"
   xmlns:cc="http://creativecommons.org/ns#"
   xmlns:rdf="http://www.w3.org/1999/02/22-rdf-syntax-ns#"
   xmlns:svg="http://www.w3.org/2000/svg"
   xmlns="http://www.w3.org/2000/svg"
   xmlns:sodipodi="http://sodipodi.sourceforge.net/DTD/sodipodi-0.dtd"
   xmlns:inkscape="http://www.inkscape.org/namespaces/inkscape"
   width="39.6875mm"
   height="21.166666mm"
   viewBox="0 0 39.6875 21.166666"
   version="1.1"
   id="svg870"
   inkscape:version="1.0.2 (e86c8708, 2021-01-15)"
   sodipodi:docname="se_logo.svg">
  <defs
     id="defs864" />
  <sodipodi:namedview
     id="base"
     pagecolor="#ffffff"
     bordercolor="#666666"
     borderopacity="1.0"
     inkscape:pageopacity="0.0"
     inkscape:pageshadow="2"
     inkscape:zoom="2.0342145"
     inkscape:cx="60.769514"
     inkscape:cy="59.066561"
     inkscape:document-units="mm"
     inkscape:current-layer="layer1"
     inkscape:document-rotation="0"
     showgrid="false"
     fit-margin-top="0"
     fit-margin-left="0"
     fit-margin-right="0"
     fit-margin-bottom="0"
     inkscape:window-width="1440"
     inkscape:window-height="769"
     inkscape:window-x="0"
     inkscape:window-y="25"
     inkscape:window-maximized="1" />
  <metadata
     id="metadata867">
    <rdf:RDF>
      <cc:Work
         rdf:about="">
        <dc:format>image/svg+xml</dc:format>
        <dc:type
           rdf:resource="http://purl.org/dc/dcmitype/StillImage" />
        <dc:title></dc:title>
      </cc:Work>
    </rdf:RDF>
  </metadata>
  <g
     inkscape:label="Layer 1"
     inkscape:groupmode="layer"
     id="layer1"
     transform="translate(-79.904167,-106.09792)">
    <path
       id="path1230"
       style="fill:#cf649a;fill-opacity:1;stroke-width:0.0333777"
       d="m 114.82015,106.26514 c -0.35904,-0.002 -0.72893,0.0113 -0.95883,0.0427 -0.40373,0.0552 -0.98286,0.20417 -1.29097,0.33202 -0.78455,0.32555 -1.33402,0.86582 -1.48323,1.45839 -0.13963,0.55453 0.2113,1.25067 0.84175,1.6698 0.28603,0.19015 0.53369,0.2882 0.69402,0.27478 l 0.12028,-0.0101 0.0229,-0.27616 c 0.10664,-1.2864 1.10041,-2.11143 2.44707,-2.0316 1.31682,0.0781 2.27783,0.86007 2.73365,2.22437 0.16706,0.50006 0.22493,0.86822 0.22386,1.42352 -0.002,1.06437 -0.27363,2.3077 -0.70863,3.2443 -0.33744,0.73364 -0.72403,1.46705 -1.1937,2.12457 -0.90412,1.24192 -2.07123,2.26558 -3.38327,2.96743 -0.19735,0.10556 -0.35881,0.18115 -0.35881,0.16799 0,-0.0132 0.0462,-0.18323 0.10267,-0.37804 0.2023,-0.6978 0.47797,-1.84699 0.84663,-3.52937 0.44587,-2.03469 0.71545,-3.01184 0.97089,-3.51907 0.12801,-0.2542 0.28566,-0.45115 0.38684,-0.48326 0.0964,-0.0306 0.067,-0.15 -0.0542,-0.22061 -0.17908,-0.10429 -0.48211,-0.16194 -0.85094,-0.16194 -0.56944,0 -0.96781,0.13775 -1.29703,0.44851 -0.35878,0.33867 -0.46929,0.72321 -0.72349,2.51742 -0.12746,0.8996 -0.19531,1.15863 -0.43397,1.6569 -0.1745,0.36429 -0.38485,0.71035 -0.64911,1.06803 -0.62934,0.85182 -1.27634,1.31848 -1.82808,1.31848 -0.32557,0 -0.44212,-0.14016 -0.44212,-0.5315 0,-0.35428 0.10956,-0.77255 0.73555,-2.80634 0.3754,-1.21967 0.51996,-1.94961 0.48711,-2.45986 -0.0195,-0.30368 -0.0625,-0.41076 -0.22687,-0.5654 -0.20467,-0.19256 -0.39102,-0.26219 -0.83868,-0.31331 -0.63203,-0.0722 -1.63267,0.11827 -1.82241,0.34688 -0.0349,0.0421 -0.0262,0.0634 0.0524,0.12739 0.38955,0.31721 0.61149,0.65404 0.69708,1.05784 0.0488,0.22988 0.0596,0.7788 0.0206,1.03883 l -0.0225,0.15014 -0.23364,0.0795 c -0.62248,0.21181 -1.44016,0.53094 -1.94472,0.75896 -0.30724,0.13886 -0.58114,0.25938 -0.60868,0.26781 -0.0921,0.0282 -0.63898,-1.12437 -0.76937,-1.62156 -0.19725,-0.75204 0.0124,-1.25312 0.66089,-1.57958 0.1582,-0.0797 0.29326,-0.1619 0.30021,-0.18273 0.0191,-0.0573 -0.11814,-0.13305 -0.35906,-0.19798 -0.3188,-0.0859 -1.06167,-0.0777 -1.40625,0.0155 -0.69567,0.18819 -1.11943,0.60891 -1.23406,1.22514 -0.0692,0.37181 0.008,0.92822 0.18312,1.32024 0.0182,0.0408 -0.0472,0.0834 -0.30334,0.19819 -0.64998,0.2912 -1.70689,0.86817 -2.281344,1.2454 l -0.08573,0.0563 -0.18964,-0.39205 c -0.387143,-0.8005 -0.505263,-1.3695 -0.372173,-1.79263 0.08941,-0.28426 0.314288,-0.51447 0.677857,-0.69396 0.168194,-0.083 0.289053,-0.16329 0.289053,-0.19198 0,-0.0622 -0.179409,-0.15027 -0.417222,-0.20489 -0.299224,-0.0687 -1.035396,-0.0508 -1.345605,0.0329 -0.884971,0.2387 -1.275854,0.84408 -1.212295,1.7743 0.0309,0.38577 0.172405,0.78998 0.350079,1.06034 0.228654,0.49429 0.773722,0.9044 0.984646,1.23204 0.02105,0.0374 -0.0053,0.078 -0.10013,0.15445 -0.444042,0.35779 -1.05746,1.03544 -1.321874,1.46013 -0.326273,0.52406 -0.457733,0.95952 -0.457968,1.51693 -3e-4,1.02639 0.445508,1.83709 1.22878,2.23377 1.019481,0.51629 2.369556,0.11187 3.019386,-0.90445 0.46103,-0.72106 0.54929,-1.63524 0.24596,-2.54761 -0.12615,-0.37945 -0.31329,-0.78052 -0.71906,-1.54111 l -0.20783,-0.38958 0.22687,-0.14648 c 0.73005,-0.47144 1.64308,-0.9046 2.51324,-1.19235 0.13128,-0.0434 0.0793,-0.0868 0.61748,0.51456 0.21365,0.23872 0.22826,0.26421 0.1712,0.29805 -0.21186,0.12562 -0.78286,0.57856 -1.03393,0.8201 -0.36231,0.34857 -0.58192,0.63605 -0.75327,0.98595 -0.16673,0.34045 -0.23645,0.66009 -0.23645,1.08439 0,1.44144 0.91256,2.43697 2.23395,2.43697 0.38786,0 0.70815,-0.0805 1.06953,-0.26878 0.82131,-0.4279 1.30079,-1.20518 1.35779,-2.20118 0.0256,-0.44694 -0.0211,-0.74761 -0.19205,-1.23498 -0.24187,-0.64192 -0.59903,-1.05139 -0.7643,-1.64939 0,-0.0609 1.75022,-0.73878 2.06108,-0.79821 0.1235,-0.0236 0.13752,0.0179 0.0707,0.20953 -0.0547,0.15858 -0.0246,0.066 -0.0902,0.29858 -0.38377,1.3082 -0.51435,2.2665 -0.3916,2.87433 0.10589,0.52442 0.33043,0.86695 0.69363,1.05831 0.16684,0.0879 0.19889,0.0928 0.59356,0.0901 0.35207,-0.002 0.46332,-0.0168 0.71234,-0.0925 0.41096,-0.12491 0.85594,-0.34974 1.19019,-0.60133 0.35138,-0.26448 0.83911,-0.76494 1.04585,-1.0731 0.0857,-0.12771 0.15574,-0.22215 0.15574,-0.20991 0,0.13512 -0.46217,1.63353 -0.68933,2.23481 l -0.0586,0.15502 -0.33527,0.10073 c -4.04576,1.21584 -5.73144,1.85892 -6.9178,2.63905 -0.903,0.59381 -1.32943,1.25876 -1.21412,1.89328 0.15543,0.85533 1.05202,1.57407 2.24708,1.80148 0.38782,0.0738 1.28565,0.0409 1.73022,-0.0634 0.37337,-0.0876 0.86234,-0.24665 1.16333,-0.37837 0.26383,-0.13138 0.36534,-0.19847 0.60047,-0.32615 0.35588,-0.2067 0.40465,-0.23456 0.65908,-0.42035 0.36702,-0.26554 1.05496,-0.88178 1.36452,-1.22226 0.8448,-0.92924 1.41037,-1.76848 2.08466,-3.09352 l 0.15021,-0.29519 0.48801,-0.2088 c 1.45729,-0.6235 2.71764,-1.47262 3.81797,-2.57224 0.79761,-0.79709 1.40726,-1.58497 1.9067,-2.46409 0.15048,-0.23345 0.22428,-0.41135 0.33515,-0.64089 0.16873,-0.36831 0.1426,-0.30687 0.30685,-0.7192 0.62235,-1.55717 0.85105,-3.37465 0.58561,-4.65378 -0.19814,-0.9548 -0.61971,-1.75518 -1.26542,-2.40242 -0.66982,-0.67141 -1.48571,-1.08712 -2.50333,-1.27553 -0.18641,-0.0345 -0.53459,-0.0537 -0.89363,-0.0563 z m -28.914217,1.52058 c -2.083126,-0.0144 -4.085831,0.9732 -5.136709,2.54747 -0.488597,0.73195 -0.71951,1.46255 -0.71951,2.27628 0,1.11724 0.371808,2.00168 1.279172,3.04253 0.453796,0.52055 1.088239,1.06537 2.595442,2.22882 1.401896,1.08216 2.015252,1.80085 2.218314,2.59923 0.08196,0.32225 0.08227,0.94861 6e-4,1.28504 -0.174099,0.71722 -0.681444,1.29099 -1.376701,1.55696 -0.305754,0.11696 -0.779262,0.14519 -1.064174,0.0634 -0.68176,-0.19567 -1.168068,-0.84057 -1.30323,-1.72814 -0.139467,-0.91585 0.180893,-1.76886 0.785289,-2.09101 0.3069,-0.16358 0.273878,-0.23112 -0.167346,-0.3427 -0.233483,-0.059 -0.341377,-0.0676 -0.663512,-0.0525 -1.14527,0.0534 -1.943653,0.61231 -2.28135,1.59705 -0.127418,0.37153 -0.165715,0.63326 -0.167998,1.14715 -0.0035,0.77998 0.184718,1.40174 0.623354,2.05913 0.536583,0.80417 1.502535,1.40505 2.50939,1.56094 0.322862,0.0499 1.121434,0.0174 1.519989,-0.0618 2.04764,-0.40741 3.540768,-1.85482 3.854733,-3.73682 0.07648,-0.45845 0.05439,-1.27669 -0.04727,-1.75201 -0.20962,-0.98015 -0.583093,-1.71017 -1.32624,-2.59212 -0.308827,-0.36651 -0.723705,-0.76696 -1.631401,-1.57477 -1.041382,-0.92677 -1.457187,-1.37016 -1.834469,-1.95638 -0.296287,-0.46036 -0.467956,-0.91387 -0.571201,-1.5089 -0.181276,-1.04474 0.311049,-2.24066 1.165547,-2.83138 0.444157,-0.30704 0.988132,-0.47302 1.550432,-0.47302 0.860184,0 1.418963,0.38981 1.698546,1.18491 0.08936,0.25413 0.09377,0.2944 0.09127,0.83445 -0.0024,0.51736 -0.0106,0.59362 -0.09309,0.86449 -0.227309,0.74647 -0.653247,1.3624 -1.125845,1.62801 -0.296862,0.16685 -0.06805,0.29665 0.565205,0.32062 0.928537,0.0351 1.681384,-0.2355 2.257425,-0.81144 0.570541,-0.57044 0.848167,-1.3316 0.810845,-2.22308 -0.01423,-0.33997 -0.03547,-0.46886 -0.120602,-0.73073 -0.25377,-0.78058 -0.834373,-1.44549 -1.598739,-1.83088 -0.634434,-0.31988 -1.234786,-0.46153 -2.094386,-0.49421 -0.06734,-0.002 -0.134634,-0.004 -0.201831,-0.005 z m 6.460145,6.42803 c -0.610376,-0.004 -1.135232,0.22438 -1.638307,0.7126 -0.703475,0.68272 -1.207616,1.73809 -1.440196,3.01496 -0.09692,0.53205 -0.104853,1.63134 -0.01532,2.12151 0.134243,0.73497 0.369556,1.32928 0.69878,1.76485 0.229696,0.3039 0.467235,0.50352 0.79109,0.66482 0.24533,0.12218 0.253668,0.12373 0.650866,0.12373 0.336319,0 0.443148,-0.0134 0.650993,-0.0814 0.437194,-0.14317 0.934066,-0.54029 1.224415,-0.97865 l 0.103915,-0.15691 0.04055,0.20606 c 0.124154,0.63107 0.387977,1.26077 0.650471,1.55272 0.17127,0.19049 0.389609,0.33103 0.617033,0.39707 0.182829,0.0531 0.583037,0.0362 0.815536,-0.0343 0.366823,-0.1113 0.680502,-0.41101 0.824537,-0.78776 0.09501,-0.24853 0.121309,-0.61388 0.05548,-0.77101 -0.0482,-0.11508 -0.05873,-0.12098 -0.248114,-0.13815 -0.643221,-0.0583 -1.057605,-0.65456 -1.218745,-1.75369 -0.06048,-0.4125 -0.04965,-1.64565 0.01955,-2.22699 0.17755,-1.49174 0.549859,-2.95682 0.773233,-3.04254 0.08243,-0.0316 0.05423,-0.13749 -0.05971,-0.22393 -0.294764,-0.22361 -0.917426,-0.29491 -1.244695,-0.14251 -0.196294,0.0914 -0.319864,0.22591 -0.399873,0.43541 l -0.05724,0.14995 -0.165324,-0.18091 c -0.366758,-0.4013 -0.869922,-0.62136 -1.428919,-0.62493 z m 0.263504,1.01724 c 0.386828,-0.008 0.743112,0.35324 0.855566,0.88392 0.06486,0.30611 0.06045,0.55901 -0.0173,0.98655 -0.03595,0.19783 -0.102814,0.68598 -0.148509,1.08477 -0.09506,0.82965 -0.176054,1.25856 -0.322889,1.70971 -0.259933,0.7986 -0.625067,1.2198 -1.089338,1.25649 -0.157892,0.0125 -0.215601,0.001 -0.32543,-0.0623 -0.365732,-0.21223 -0.575163,-0.83642 -0.607776,-1.81166 -0.04658,-1.39318 0.334696,-2.90221 0.909281,-3.59881 0.201522,-0.24432 0.451266,-0.40941 0.668661,-0.442 0.026,-0.004 0.05192,-0.006 0.07771,-0.007 z m 11.449668,1.96134 c 0.0334,0 0.18318,0.33144 0.28332,0.62694 0.12867,0.37966 0.1697,0.66404 0.16943,1.17546 -4.5e-4,0.40545 -0.0123,0.5221 -0.074,0.71899 -0.13121,0.41849 -0.40698,0.76427 -0.71072,0.89103 -0.15377,0.0642 -0.39134,0.0924 -0.51677,0.0614 -0.25409,-0.0628 -0.46634,-0.24957 -0.59076,-0.5199 -0.0677,-0.14709 -0.0765,-0.21636 -0.0745,-0.58411 0.002,-0.37142 0.0125,-0.44427 0.095,-0.6637 0.16163,-0.42993 0.3548,-0.73282 0.70276,-1.10186 0.19941,-0.2115 0.66496,-0.60426 0.71626,-0.60426 z m -5.137181,0.68732 c 0.0025,0 0.004,0 0.0055,0.001 0.04395,0.0272 0.242699,0.43748 0.324519,0.66996 0.188909,0.53677 0.255224,1.31229 0.153329,1.79327 -0.170019,0.80254 -0.773936,1.28939 -1.351794,1.08968 -0.666867,-0.23047 -0.794362,-1.22996 -0.281234,-2.20489 0.06281,-0.11933 0.204154,-0.33695 0.314084,-0.48359 0.223014,-0.29747 0.763081,-0.85468 0.835551,-0.86515 z m 10.928801,3.9979 c 0.0431,-0.001 0.0151,0.0474 -0.13065,0.29595 -0.67797,1.15652 -1.6253,2.17463 -2.64544,2.84306 -0.49125,0.33709 -0.90473,0.51871 -1.36093,0.67818 -0.40204,0.13857 -0.88828,0.17493 -1.24729,0.0933 v 0 c -0.43632,-0.0992 -0.81069,-0.33346 -0.94097,-0.5888 -0.43018,-0.84323 1.24818,-1.88774 4.63872,-2.88692 0.25074,-0.0739 1.41192,-0.37557 1.64601,-0.42766 0.0169,-0.004 0.0306,-0.007 0.0405,-0.007 z"
       sodipodi:nodetypes="sssssccssssccssssssssssssssssssssssccssssssssssscsssssscccsscsssscssssssssssccsccssssssscccsssscccsscsscccsssssssssscsssssssssscsssssssssssssssssscssssssssscssssssssssssscsssssssscsssssscssssssssssssssssssssccssssscs" />
  </g>
</svg>
